REM DIRINDEX 1\2,1\3,1\4
REM DIRNAME folder01,folder02,folder03,folder04
TITLE ""
FILE "DISC1Track08.mp3" MP3
  TRACK 01 AUDIO
    TITLE "0:"
    INDEX 01 00:00:00
  TRACK 02 AUDIO
    TITLE "4:cjc105_0526"
    INDEX 01 00:00:15
  TRACK 03 AUDIO
    TITLE "0:"
    INDEX 01 00:06:49
  TRACK 04 AUDIO
    TITLE "2:cjc105_0527"
    INDEX 01 00:07:17
  TRACK 05 AUDIO
    TITLE "2:cjc105_0528"
    INDEX 01 00:10:61
  TRACK 06 AUDIO
    TITLE "2:cjc105_0529"
    INDEX 01 00:14:60
  TRACK 07 AUDIO
    TITLE "2:cjc105_0530"
    INDEX 01 00:18:44
  TRACK 08 AUDIO
    TITLE "2:cjc105_0531"
    INDEX 01 00:22:09
  TRACK 09 AUDIO
    TITLE "2:cjc105_0532"
    INDEX 01 00:25:01
  TRACK 10 AUDIO
    TITLE "2:cjc105_0533"
    INDEX 01 00:28:41
  TRACK 11 AUDIO
    TITLE "2:cjc105_0534"
    INDEX 01 00:31:39
  TRACK 12 AUDIO
    TITLE "2:cjc105_0535"
    INDEX 01 00:34:55
  TRACK 13 AUDIO
    TITLE "2:cjc105_0536"
    INDEX 01 00:38:43
  TRACK 14 AUDIO
    TITLE "2:cjc105_0537"
    INDEX 01 00:42:06
  TRACK 15 AUDIO
    TITLE "2:cjc105_0538"
    INDEX 01 00:45:18
  TRACK 16 AUDIO
    TITLE "2:cjc105_0539"
    INDEX 01 00:48:36
  TRACK 17 AUDIO
    TITLE "2:cjc105_0540"
    INDEX 01 00:51:46
  TRACK 18 AUDIO
    TITLE "2:cjc105_0541"
    INDEX 01 00:54:70
  TRACK 19 AUDIO
    TITLE "2:cjc105_0542"
    INDEX 01 00:57:62
  TRACK 20 AUDIO
    TITLE "2:cjc105_0543"
    INDEX 01 01:01:21
  TRACK 21 AUDIO
    TITLE "2:cjc105_0544"
    INDEX 01 01:04:27
  TRACK 22 AUDIO
    TITLE "2:cjc105_0545"
    INDEX 01 01:07:37
  TRACK 23 AUDIO
    TITLE "2:cjc105_0546"
    INDEX 01 01:10:47
  TRACK 24 AUDIO
    TITLE "2:cjc105_0547"
    INDEX 01 01:13:71
  TRACK 25 AUDIO
    TITLE "2:cjc105_0548"
    INDEX 01 01:17:26
  TRACK 26 AUDIO
    TITLE "2:cjc105_0549"
    INDEX 01 01:20:51
  TRACK 27 AUDIO
    TITLE "2:cjc105_0550"
    INDEX 01 01:23:62
  TRACK 28 AUDIO
    TITLE "2:cjc105_0551"
    INDEX 01 01:27:34
  TRACK 29 AUDIO
    TITLE "2:cjc105_0552"
    INDEX 01 01:30:50
  TRACK 30 AUDIO
    TITLE "2:cjc105_0553"
    INDEX 01 01:33:33
  TRACK 31 AUDIO
    TITLE "2:cjc105_0554"
    INDEX 01 01:37:13
  TRACK 32 AUDIO
    TITLE "2:cjc105_0555"
    INDEX 01 01:40:64
  TRACK 33 AUDIO
    TITLE "2:cjc105_0556"
    INDEX 01 01:44:13
  TRACK 34 AUDIO
    TITLE "2:cjc105_0557"
    INDEX 01 01:47:11
  TRACK 35 AUDIO
    TITLE "2:cjc105_0558"
    INDEX 01 01:50:29
  TRACK 36 AUDIO
    TITLE "2:cjc105_0559"
    INDEX 01 01:53:08
  TRACK 37 AUDIO
    TITLE "2:cjc105_0560"
    INDEX 01 01:56:30
  TRACK 38 AUDIO
    TITLE "2:cjc105_0561"
    INDEX 01 01:59:46
  TRACK 39 AUDIO
    TITLE "2:cjc105_0562"
    INDEX 01 02:02:40
  TRACK 40 AUDIO
    TITLE "2:cjc105_0563"
    INDEX 01 02:05:54
  TRACK 41 AUDIO
    TITLE "2:cjc105_0564"
    INDEX 01 02:08:66
  TRACK 42 AUDIO
    TITLE "2:cjc105_0565"
    INDEX 01 02:12:27
  TRACK 43 AUDIO
    TITLE "2:cjc105_0566"
    INDEX 01 02:15:45
  TRACK 44 AUDIO
    TITLE "2:cjc105_0567"
    INDEX 01 02:18:70
  TRACK 45 AUDIO
    TITLE "2:cjc105_0568"
    INDEX 01 02:22:06
  TRACK 46 AUDIO
    TITLE "2:cjc105_0569"
    INDEX 01 02:25:02
  TRACK 47 AUDIO
    TITLE "2:cjc105_0570"
    INDEX 01 02:28:10
  TRACK 48 AUDIO
    TITLE "2:cjc105_0571"
    INDEX 01 02:31:57
  TRACK 49 AUDIO
    TITLE "2:cjc105_0572"
    INDEX 01 02:35:08
  TRACK 50 AUDIO
    TITLE "2:cjc105_0573"
    INDEX 01 02:38:24
  TRACK 51 AUDIO
    TITLE "2:cjc105_0574"
    INDEX 01 02:42:26
  TRACK 52 AUDIO
    TITLE "2:cjc105_0575"
    INDEX 01 02:45:67
  TRACK 53 AUDIO
    TITLE "2:cjc105_0576"
    INDEX 01 02:49:00
  TRACK 54 AUDIO
    TITLE "2:cjc105_0577"
    INDEX 01 02:52:61
  TRACK 55 AUDIO
    TITLE "2:cjc105_0578"
    INDEX 01 02:55:60
  TRACK 56 AUDIO
    TITLE "2:cjc105_0579"
    INDEX 01 02:59:24
  TRACK 57 AUDIO
    TITLE "2:cjc105_0580"
    INDEX 01 03:03:16
  TRACK 58 AUDIO
    TITLE "2:cjc105_0581"
    INDEX 01 03:06:32
  TRACK 59 AUDIO
    TITLE "2:cjc105_0582"
    INDEX 01 03:10:03
  TRACK 60 AUDIO
    TITLE "2:cjc105_0583"
    INDEX 01 03:13:26
  TRACK 61 AUDIO
    TITLE "2:cjc105_0584"
    INDEX 01 03:17:20
  TRACK 62 AUDIO
    TITLE "2:cjc105_0585"
    INDEX 01 03:20:36
  TRACK 63 AUDIO
    TITLE "2:cjc105_0586"
    INDEX 01 03:23:72
  TRACK 64 AUDIO
    TITLE "2:cjc105_0587"
    INDEX 01 03:27:42
  TRACK 65 AUDIO
    TITLE "2:cjc105_0588"
    INDEX 01 03:30:68
  TRACK 66 AUDIO
    TITLE "2:cjc105_0589"
    INDEX 01 03:33:68
  TRACK 67 AUDIO
    TITLE "2:cjc105_0590"
    INDEX 01 03:36:74
  TRACK 68 AUDIO
    TITLE "2:cjc105_0591"
    INDEX 01 03:39:73
  TRACK 69 AUDIO
    TITLE "2:cjc105_0592"
    INDEX 01 03:43:43
  TRACK 70 AUDIO
    TITLE "2:cjc105_0593"
    INDEX 01 03:46:61
  TRACK 71 AUDIO
    TITLE "2:cjc105_0594"
    INDEX 01 03:50:24
  TRACK 72 AUDIO
    TITLE "2:cjc105_0595"
    INDEX 01 03:53:42
  TRACK 73 AUDIO
    TITLE "2:cjc105_0596"
    INDEX 01 03:57:00
  TRACK 74 AUDIO
    TITLE "2:cjc105_0597"
    INDEX 01 04:00:34
  TRACK 75 AUDIO
    TITLE "2:cjc105_0598"
    INDEX 01 04:03:44
  TRACK 76 AUDIO
    TITLE "2:cjc105_0599"
    INDEX 01 04:06:68
  TRACK 77 AUDIO
    TITLE "2:cjc105_0600"
    INDEX 01 04:10:50
  TRACK 78 AUDIO
    TITLE "2:cjc105_0601"
    INDEX 01 04:13:54
  TRACK 79 AUDIO
    TITLE "2:cjc105_0602"
    INDEX 01 04:16:50
  TRACK 80 AUDIO
    TITLE "2:cjc105_0603"
    INDEX 01 04:19:64
  TRACK 81 AUDIO
    TITLE "2:cjc105_0604"
    INDEX 01 04:23:35
  TRACK 82 AUDIO
    TITLE "2:cjc105_0605"
    INDEX 01 04:26:63
  TRACK 83 AUDIO
    TITLE "2:cjc105_0606"
    INDEX 01 04:30:02
  TRACK 84 AUDIO
    TITLE "2:cjc105_0607"
    INDEX 01 04:33:12
  TRACK 85 AUDIO
    TITLE "2:cjc105_0608"
    INDEX 01 04:36:69
  TRACK 86 AUDIO
    TITLE "2:cjc105_0609"
    INDEX 01 04:39:69
  TRACK 87 AUDIO
    TITLE "2:cjc105_0610"
    INDEX 01 04:43:47
  TRACK 88 AUDIO
    TITLE "2:cjc105_0611"
    INDEX 01 04:47:00
  TRACK 89 AUDIO
    TITLE "2:cjc105_0612"
    INDEX 01 04:51:29
  TRACK 90 AUDIO
    TITLE "2:cjc105_0613"
    INDEX 01 04:55:29
  TRACK 91 AUDIO
    TITLE "2:cjc105_0614"
    INDEX 01 04:58:53
  TRACK 92 AUDIO
    TITLE "2:cjc105_0615"
    INDEX 01 05:02:11
  TRACK 93 AUDIO
    TITLE "2:cjc105_0616"
    INDEX 01 05:05:70
  TRACK 94 AUDIO
    TITLE "2:cjc105_0617"
    INDEX 01 05:09:13
  TRACK 95 AUDIO
    TITLE "0:"
    INDEX 01 05:12:59
